<svg xmlns="http://www.w3.org/2000/svg" version="1.1" xmlns:xlink="http://www.w3.org/1999/xlink" width="63" height="23"><svg width="63" height="23" viewBox="0 0 63 23" fill="none" xmlns="http://www.w3.org/2000/svg">
<path d="M62.4573 0.0734863H53.6207V7.53323H62.4573V0.0734863Z" fill="#8F43EE"></path>
<path d="M62.4539 22.6188H53.6275C53.6275 19.0735 50.1474 16.1989 45.8553 16.1989V16.2074H40.427V22.5991H31.3959V0H40.427V8.9083H45.8553C55.0229 8.9083 62.4539 15.0463 62.4539 22.6188Z" fill="#8F43EE"></path>
<path d="M30.2324 0.013916V22.613H22.0235V16.1847H16.5952C12.3031 16.1847 8.82305 19.0621 8.82305 22.6073H0C0 18.6281 2.05052 15.0461 5.32931 12.5408C2.05052 10.0354 0 6.45348 0 2.47419V0.013916H8.82646V2.47419C8.82646 6.01948 12.3065 8.89403 16.5987 8.89403V8.88558H22.0269V0.013916H30.2358H30.2324Z" fill="#8F43EE"></path>
</svg><style>@media (prefers-color-scheme: light) { :root { filter: none; } }
@media (prefers-color-scheme: dark) { :root { filter: none; } }
</style></svg>